# xmcd
#
# Track frame offsets: 
#        150
#        12595
#        25562
#        35390
#        45932
#        54947
#        65515
#        75327
#        84357
#        94497
#        103875
#        114915
#        125062
#        135340
#        146615
#        156312
#        167427
#        178895
#        189310
#        197665
#        210185
#        222707
#        234500
#        245522
#        256925
#        265830
#
# Disc length: 3726 seconds
#
# Revision: 0
# Processed by: cddbd v1.5.2PL0 Copyright (c) Steve Scherf et al.
# Submitted via: ExactAudioCopy v1.0b3
#
DISCID=5e0e8c1a
DTITLE=Bob Wills and His Texas Playboys - Faded Love 1947-1973 [CD11)
DYEAR=2005
DGENRE=Country
TTITLE0=Running Bear
TTITLE1=If I Just Had A Home To Go Home To
TTITLE2=Across The Alley From The Alamo
TTITLE3=Time Changes Everything
TTITLE4=Texas Double Eagle
TTITLE5=Southwestern Waltz
TTITLE6=Cherokee Maiden
TTITLE7=There's Not A Hundred Miles Left In Me
TTITLE8=I'm Living In The Middle Of Nowhere
TTITLE9=Silver Bells (That Ring In The Night)
TTITLE10=Limehouse Blues
TTITLE11=Memory #1
TTITLE12=South Of The Border (Down Mexico Way)
TTITLE13=Song Of The Wanderer (Where Shall I Go?)
TTITLE14=Slow Poke
TTITLE15=Pan Handle Rag
TTITLE16=No Letter Today
TTITLE17=Shame On You
TTITLE18=Whose Heart Are You Breaking Now
TTITLE19=My Mary
TTITLE20=It's A Good World
TTITLE21=What Kind Of Girl Are You
TTITLE22=Milk Cow Blues
TTITLE23=Talkin' Bout You
TTITLE24=Look What Trouble Left Behind
TTITLE25=Brown Skin Gal
EXTD=
EXTT0=
EXTT1=
EXTT2=
EXTT3=
EXTT4=
EXTT5=
EXTT6=
EXTT7=
EXTT8=
EXTT9=
EXTT10=
EXTT11=
EXTT12=
EXTT13=
EXTT14=
EXTT15=
EXTT16=
EXTT17=
EXTT18=
EXTT19=
EXTT20=
EXTT21=
EXTT22=
EXTT23=
EXTT24=
EXTT25=
PLAYORDER=
